<svg xmlns="http://www.w3.org/2000/svg" viewBox="0 0 1200 630" width="1200" height="630">
  <defs>
    <linearGradient id="bg" x1="0%" y1="0%" x2="100%" y2="100%">
      <stop offset="0%" stop-color="#4f46e5"/>
      <stop offset="100%" stop-color="#7c3aed"/>
    </linearGradient>
  </defs>
  <rect width="1200" height="630" fill="url(#bg)"/>
  <!-- Pattern -->
  <g opacity="0.04" fill="#fff">
    <circle cx="100" cy="100" r="2"/><circle cx="200" cy="100" r="2"/><circle cx="300" cy="100" r="2"/>
    <circle cx="400" cy="100" r="2"/><circle cx="500" cy="100" r="2"/><circle cx="600" cy="100" r="2"/>
    <circle cx="700" cy="100" r="2"/><circle cx="800" cy="100" r="2"/><circle cx="900" cy="100" r="2"/>
    <circle cx="1000" cy="100" r="2"/><circle cx="1100" cy="100" r="2"/>
    <circle cx="100" cy="200" r="2"/><circle cx="200" cy="200" r="2"/><circle cx="300" cy="200" r="2"/>
    <circle cx="400" cy="200" r="2"/><circle cx="500" cy="200" r="2"/><circle cx="600" cy="200" r="2"/>
    <circle cx="700" cy="200" r="2"/><circle cx="800" cy="200" r="2"/><circle cx="900" cy="200" r="2"/>
    <circle cx="1000" cy="200" r="2"/><circle cx="1100" cy="200" r="2"/>
    <circle cx="100" cy="300" r="2"/><circle cx="200" cy="300" r="2"/><circle cx="300" cy="300" r="2"/>
    <circle cx="400" cy="300" r="2"/><circle cx="500" cy="300" r="2"/><circle cx="600" cy="300" r="2"/>
    <circle cx="700" cy="300" r="2"/><circle cx="800" cy="300" r="2"/><circle cx="900" cy="300" r="2"/>
    <circle cx="1000" cy="300" r="2"/><circle cx="1100" cy="300" r="2"/>
    <circle cx="100" cy="400" r="2"/><circle cx="200" cy="400" r="2"/><circle cx="300" cy="400" r="2"/>
    <circle cx="400" cy="400" r="2"/><circle cx="500" cy="400" r="2"/><circle cx="600" cy="400" r="2"/>
    <circle cx="700" cy="400" r="2"/><circle cx="800" cy="400" r="2"/><circle cx="900" cy="400" r="2"/>
    <circle cx="1000" cy="400" r="2"/><circle cx="1100" cy="400" r="2"/>
    <circle cx="100" cy="500" r="2"/><circle cx="200" cy="500" r="2"/><circle cx="300" cy="500" r="2"/>
    <circle cx="400" cy="500" r="2"/><circle cx="500" cy="500" r="2"/><circle cx="600" cy="500" r="2"/>
    <circle cx="700" cy="500" r="2"/><circle cx="800" cy="500" r="2"/><circle cx="900" cy="500" r="2"/>
    <circle cx="1000" cy="500" r="2"/><circle cx="1100" cy="500" r="2"/>
  </g>
  <!-- Graduation Cap -->
  <g transform="translate(600,240)" fill="none" stroke="#fff" stroke-width="3" stroke-linecap="round" stroke-linejoin="round">
    <polygon points="0,-55 80,-20 0,15 -80,-20" fill="rgba(255,255,255,.12)" stroke="#fff" stroke-width="2.5"/>
    <line x1="50" y1="-20" x2="50" y2="5"/>
    <circle cx="50" cy="10" r="4" fill="#fbbf24" stroke="#fbbf24"/>
    <path d="M-45,0 L-45,40 C-45,55 45,55 45,40 L45,0" fill="rgba(255,255,255,.08)"/>
  </g>
  <!-- Brand Name -->
  <text x="600" y="340" text-anchor="middle" font-family="Inter,system-ui,sans-serif" font-size="48" font-weight="800" fill="#fff" letter-spacing="-0.5">Om Abonk</text>
  <!-- Tagline -->
  <text x="600" y="390" text-anchor="middle" font-family="Inter,system-ui,sans-serif" font-size="20" font-weight="400" fill="rgba(255,255,255,.75)">Belajar IT Jadi Mudah &amp; Menyenangkan</text>
  <!-- URL -->
  <text x="600" y="580" text-anchor="middle" font-family="Inter,system-ui,sans-serif" font-size="16" font-weight="500" fill="rgba(255,255,255,.5)">ayodaftar.web.id</text>
</svg>
